<svg xmlns="http://www.w3.org/2000/svg" data-name="Layer 1" viewBox="0 0 100 125" x="0px" y="0px"><title>Artboard 2</title><path d="M42,89.46a4.47,4.47,0,0,0,8.06,0L70.27,46.94A26.87,26.87,0,0,0,65,16.39h0a26.88,26.88,0,0,0-38,0h0a26.87,26.87,0,0,0-5.26,30.54ZM28,33.52A2.72,2.72,0,0,1,30.88,31h8.85A2.28,2.28,0,0,0,42,28.72V19.88A2.72,2.72,0,0,1,44.52,17h3.2A2.28,2.28,0,0,1,50,19.28v8.42A2.32,2.32,0,0,0,52.34,30h9.32A2.33,2.33,0,0,1,64,32.31v3.85A2.86,2.86,0,0,1,61.12,39H53.31A2.32,2.32,0,0,0,51,41.34v9.32A2.33,2.33,0,0,1,48.69,53H44.84A2.86,2.86,0,0,1,42,50.12V41.28A2.28,2.28,0,0,0,39.72,39H30.28A2.28,2.28,0,0,1,28,36.72Z"/><text x="0" y="115" fill="#000000" font-size="5px" font-weight="bold" font-family="'Helvetica Neue', Helvetica, Arial-Unicode, Arial, Sans-serif">Created by Bernar  Novalyi</text><text x="0" y="120" fill="#000000" font-size="5px" font-weight="bold" font-family="'Helvetica Neue', Helvetica, Arial-Unicode, Arial, Sans-serif">from the Noun Project</text></svg>