<svg xmlns="http://www.w3.org/2000/svg" xmlns:xlink="http://www.w3.org/1999/xlink" version="1.1" x="0px" y="0px" viewBox="0 0 100 100" enable-background="new 0 0 100 100" xml:space="preserve"><g><ellipse cx="49.414" cy="80.399" rx="12.242" ry="4.711"></ellipse><path d="M67.869,15H32.122C27.399,15,23,18.963,23,23.686v27.521C23,55.929,27.399,60,32.122,60H41.3l8.696,13.948L58.691,60h9.178   C72.592,60,76,55.929,76,51.206V23.686C76,18.963,72.592,15,67.869,15z M72,51.206C72,53.723,70.386,56,67.869,56H56.471   l-6.476,10.387L43.52,56H32.122C29.605,56,27,53.723,27,51.206V23.686C27,21.169,29.605,19,32.122,19h35.747   C70.386,19,72,21.169,72,23.686V51.206z"></path><circle cx="43.929" cy="28.674" r="3.784"></circle><circle cx="54.728" cy="28.674" r="3.784"></circle><path d="M42.5,40h-4.723c0.999,2,2.598,4.22,4.588,5.609c0.684,3.541,3.802,6.258,7.539,6.258c3.684,0,6.768-2.658,7.51-6.123   c2.09-1.399,3.765-2.744,4.8-5.744H57.5H42.5z M54,44.219c0,2.582-1.918,4.682-4.5,4.682c-2.582,0-4.5-2.101-4.5-4.682V43h9V44.219   z"></path></g></svg>