<svg xmlns:dc="http://purl.org/dc/elements/1.1/" xmlns:cc="http://creativecommons.org/ns#" xmlns:rdf="http://www.w3.org/1999/02/22-rdf-syntax-ns#" xmlns:svg="http://www.w3.org/2000/svg" xmlns="http://www.w3.org/2000/svg" xmlns:sodipodi="http://sodipodi.sourceforge.net/DTD/sodipodi-0.dtd" xmlns:inkscape="http://www.inkscape.org/namespaces/inkscape" version="1.1" xml:space="preserve" x="0px" y="0px" viewBox="0 0 NaN NaN"><g transform="matrix(1.25,0,0,-1.25,0,125)"><path style="" d="m 44.013312,22.225442 c -3.562127,6.326337 -4.69334,7.712758 -6.609813,8.101029 -1.2717,0.257643 -8.238405,0.468441 -15.481567,0.468441 l -13.1693871,0 0,24.931356 0,24.931357 40.2118661,0 40.211866,0 0,-24.931357 0,-24.931356 -13.470975,-0.09515 c -7.409038,-0.05234 -14.530576,-0.323767 -15.825644,-0.603181 -1.914254,-0.413004 -3.12272,-1.816772 -6.461039,-7.505221 -2.258503,-3.848458 -4.331664,-7.222491 -4.607024,-7.497852 -0.27536,-0.27536 -2.434588,2.934012 -4.798283,7.131935 z" fill="#000000"/></g><text x="0" y="NaN" fill="#000000" font-size="5px" font-weight="bold" font-family="'Helvetica Neue', Helvetica, Arial-Unicode, Arial, Sans-serif">Created by Hemanta Sapkota</text><text x="0" y="NaN" fill="#000000" font-size="5px" font-weight="bold" font-family="'Helvetica Neue', Helvetica, Arial-Unicode, Arial, Sans-serif">from the Noun Project</text></svg>